<?xml version='1.0' encoding='utf-8'?>
<mxfile host="app.diagrams.net">
  <diagram id="diagram_1" name="Page-1">
    <mxGraphModel dx="1000" dy="1000" grid="1" gridSize="10">
      <root>
        <mxCell id="0" />
        <mxCell id="1" parent="0" />
        <mxCell id="2" value="" style="swimlane;horizontal=0;fillColor=#dae8fc;" vertex="1" parent="1">
          <mxGeometry x="72" y="64" width="1429" height="160" as="geometry" />
        </mxCell>
        <mxCell id="3" value="start" style="ellipse;whiteSpace=wrap;html=1;fillColor=#FFF68F;" vertex="1" parent="1">
          <mxGeometry x="207.0" y="121.0" width="60" height="60" as="geometry" />
        </mxCell>
        <mxCell id="4" value="Put the pizza in the oven" style="rounded=0;whiteSpace=wrap;html=1;fillColor=#FFF68F;strokeColor=#000000;" vertex="1" parent="1">
          <mxGeometry x="402" y="114" width="130" height="74" as="geometry" />
        </mxCell>
        <mxCell id="5" value="Check to see if pizza is done" style="rounded=0;whiteSpace=wrap;html=1;fillColor=#FFF68F;strokeColor=#000000;" vertex="1" parent="1">
          <mxGeometry x="632" y="114" width="130" height="74" as="geometry" />
        </mxCell>
        <mxCell id="6" value="Done baking?" style="rhombus;whiteSpace=wrap;html=1;fillColor=#FFF68F;" vertex="1" parent="1">
          <mxGeometry x="872" y="114" width="110" height="74" as="geometry" />
        </mxCell>
        <mxCell id="7" value="Take the pizza out of the oven" style="rounded=0;whiteSpace=wrap;html=1;fillColor=#FFF68F;strokeColor=#000000;" vertex="1" parent="1">
          <mxGeometry x="1092" y="114" width="130" height="74" as="geometry" />
        </mxCell>
        <mxCell id="8" value="end" style="ellipse;whiteSpace=wrap;html=1;fillColor=#FFF68F;strokeWidth=3;" vertex="1" parent="1">
          <mxGeometry x="1357.0" y="121.0" width="60" height="60" as="geometry" />
        </mxCell>
        <mxCell id="9" value="" style="endArrow=block;html=1;" edge="1" parent="1" source="3" target="4">
          <mxGeometry relative="1" as="geometry" />
        </mxCell>
        <mxCell id="10" value="" style="endArrow=block;html=1;" edge="1" parent="1" source="4" target="5">
          <mxGeometry relative="1" as="geometry" />
        </mxCell>
        <mxCell id="11" value="" style="endArrow=block;html=1;" edge="1" parent="1" source="5" target="6">
          <mxGeometry relative="1" as="geometry" />
        </mxCell>
        <mxCell id="12" value="Yes" style="endArrow=block;html=1;" edge="1" parent="1" source="6" target="7">
          <mxGeometry relative="1" as="geometry" />
        </mxCell>
        <mxCell id="13" value="No" style="endArrow=block;html=1;" edge="1" parent="1" source="6" target="4">
          <mxGeometry relative="1" as="geometry">
            <Array as="points">
              <mxPoint x="927" y="218" />
              <mxPoint x="467" y="218" />
            </Array>
          </mxGeometry>
        </mxCell>
        <mxCell id="14" value="" style="endArrow=block;html=1;" edge="1" parent="1" source="7" target="8">
          <mxGeometry relative="1" as="geometry" />
        </mxCell>
      </root>
    </mxGraphModel>
  </diagram>
</mxfile>